<svg width="752" height="768" viewBox="0 0 752 768" fill="none" xmlns="http://www.w3.org/2000/svg" xmlns:xlink="http://www.w3.org/1999/xlink">
<path d="M752,42C752,18.804 733.196,0 710,0L41,0C17.804,0 -1,18.804 -1,42L-1,726C-1,749.196 17.804,768 41,768L592.204,768C605.138,768 613.718,753.614 611.61,740.852L611.61,740.852L607.942,718.65C598.546,661.78 647,612.114 704.084,620.1L704.084,620.1C724.108,622.902 752,609.562 752,589.34L752,42Z" clip-rule="evenodd" fill-rule="evenodd" fill="#F7F7F8"/>
<path d="M752,42C752,18.804 733.196,0 710,0L41,0C17.804,0 -1,18.804 -1,42L-1,726C-1,749.196 17.804,768 41,768L592.204,768C605.138,768 613.718,753.614 611.61,740.852L611.61,740.852L607.942,718.65C598.546,661.78 647,612.114 704.084,620.1L704.084,620.1C724.108,622.902 752,609.562 752,589.34L752,42Z" clip-rule="evenodd" fill-rule="evenodd" fill="url(#pattern_1_2_164)"/>
<rect  x="628" y="644" width="124" height="124" rx="200" fill="#FFD400"/>
<path d="M678.108,723.96C680.265,723.96 682.031,725.765 682.031,727.993C682.031,730.196 680.265,732 678.108,732C675.926,732 674.16,730.196 674.16,727.993C674.16,725.765 675.926,723.96 678.108,723.96ZM707.336,723.96C709.492,723.96 711.259,725.765 711.259,727.993C711.259,730.196 709.492,732 707.336,732C705.153,732 703.387,730.196 703.387,727.993C703.387,725.765 705.153,723.96 707.336,723.96ZM666.288,680.023L672.484,680.975C673.368,681.137 674.017,681.877 674.095,682.78L674.589,688.723C674.667,689.575 675.342,690.211 676.173,690.211L711.259,690.211C712.844,690.211 713.883,690.769 714.922,691.989C715.961,693.21 716.143,694.961 715.909,696.55L713.441,713.956C712.974,717.302 710.168,719.767 706.869,719.767L678.525,719.767C675.069,719.767 672.212,717.063 671.926,713.561L669.536,684.637L665.613,683.947C664.573,683.761 663.846,682.726 664.028,681.665C664.21,680.58 665.223,679.861 666.288,680.023ZM702.712,700.026L695.515,700.026C694.424,700.026 693.567,700.902 693.567,702.016C693.567,703.104 694.424,704.006 695.515,704.006L702.712,704.006C703.803,704.006 704.66,703.104 704.66,702.016C704.66,700.902 703.803,700.026 702.712,700.026Z" fill="#262626"/>
</svg>
