<svg width="754" height="768" viewBox="0 0 754 768" fill="none" xmlns="http://www.w3.org/2000/svg" xmlns:xlink="http://www.w3.org/1999/xlink">
<path d="M754,42C754,18.804 735.196,0 712,0L43,0C19.804,0 1,18.804 1,42L1,726C1,749.196 19.804,768 43,768L594.204,768C607.138,768 615.718,753.614 613.61,740.852L613.61,740.852L609.942,718.65C600.546,661.78 649,612.114 706.084,620.1L706.084,620.1C726.108,622.902 754,609.562 754,589.34L754,42Z" clip-rule="evenodd" fill-rule="evenodd" fill="#F7F7F8"/>
<path d="M754,42C754,18.804 735.196,0 712,0L43,0C19.804,0 1,18.804 1,42L1,726C1,749.196 19.804,768 43,768L594.204,768C607.138,768 615.718,753.614 613.61,740.852L613.61,740.852L609.942,718.65C600.546,661.78 649,612.114 706.084,620.1L706.084,620.1C726.108,622.902 754,609.562 754,589.34L754,42Z" clip-rule="evenodd" fill-rule="evenodd" fill="url(#pattern_1_2_140)"/>
<rect  x="630" y="644" width="124" height="124" rx="200" fill="#FFD400"/>
<path d="M680.108,723.96C682.265,723.96 684.031,725.765 684.031,727.993C684.031,730.196 682.265,732 680.108,732C677.926,732 676.16,730.196 676.16,727.993C676.16,725.765 677.926,723.96 680.108,723.96ZM709.336,723.96C711.492,723.96 713.259,725.765 713.259,727.993C713.259,730.196 711.492,732 709.336,732C707.153,732 705.387,730.196 705.387,727.993C705.387,725.765 707.153,723.96 709.336,723.96ZM668.288,680.023L674.484,680.975C675.368,681.137 676.017,681.877 676.095,682.78L676.589,688.723C676.667,689.575 677.342,690.211 678.173,690.211L713.259,690.211C714.844,690.211 715.883,690.769 716.922,691.989C717.961,693.21 718.143,694.961 717.909,696.55L715.441,713.956C714.974,717.302 712.168,719.767 708.869,719.767L680.525,719.767C677.069,719.767 674.212,717.063 673.926,713.561L671.536,684.637L667.613,683.947C666.573,683.761 665.846,682.726 666.028,681.665C666.21,680.58 667.223,679.861 668.288,680.023ZM704.712,700.026L697.515,700.026C696.424,700.026 695.567,700.902 695.567,702.016C695.567,703.104 696.424,704.006 697.515,704.006L704.712,704.006C705.803,704.006 706.66,703.104 706.66,702.016C706.66,700.902 705.803,700.026 704.712,700.026Z" fill="#262626"/>
</svg>
