<svg width="754" height="768" viewBox="0 0 754 768" fill="none" xmlns="http://www.w3.org/2000/svg" xmlns:xlink="http://www.w3.org/1999/xlink">
<path d="M753,42C753,18.804 734.196,0 711,0L42,0C18.804,0 0,18.804 0,42L0,726C0,749.196 18.804,768 42,768L593.204,768C606.138,768 614.718,753.614 612.61,740.852L612.61,740.852L608.942,718.65C599.546,661.78 648,612.114 705.084,620.1L705.084,620.1C725.108,622.902 753,609.562 753,589.34L753,42Z" clip-rule="evenodd" fill-rule="evenodd" fill="#F7F7F8"/>
<path d="M753,42C753,18.804 734.196,0 711,0L42,0C18.804,0 0,18.804 0,42L0,726C0,749.196 18.804,768 42,768L593.204,768C606.138,768 614.718,753.614 612.61,740.852L612.61,740.852L608.942,718.65C599.546,661.78 648,612.114 705.084,620.1L705.084,620.1C725.108,622.902 753,609.562 753,589.34L753,42Z" clip-rule="evenodd" fill-rule="evenodd" fill="url(#pattern_1_2_152)"/>
<rect  x="629" y="644" width="124" height="124" rx="200" fill="#FFD400"/>
<path d="M679.108,723.96C681.265,723.96 683.031,725.765 683.031,727.993C683.031,730.196 681.265,732 679.108,732C676.926,732 675.16,730.196 675.16,727.993C675.16,725.765 676.926,723.96 679.108,723.96ZM708.336,723.96C710.492,723.96 712.259,725.765 712.259,727.993C712.259,730.196 710.492,732 708.336,732C706.153,732 704.387,730.196 704.387,727.993C704.387,725.765 706.153,723.96 708.336,723.96ZM667.288,680.023L673.484,680.975C674.368,681.137 675.017,681.877 675.095,682.78L675.589,688.723C675.667,689.575 676.342,690.211 677.173,690.211L712.259,690.211C713.844,690.211 714.883,690.769 715.922,691.989C716.961,693.21 717.143,694.961 716.909,696.55L714.441,713.956C713.974,717.302 711.168,719.767 707.869,719.767L679.525,719.767C676.069,719.767 673.212,717.063 672.926,713.561L670.536,684.637L666.613,683.947C665.573,683.761 664.846,682.726 665.028,681.665C665.21,680.58 666.223,679.861 667.288,680.023ZM703.712,700.026L696.515,700.026C695.424,700.026 694.567,700.902 694.567,702.016C694.567,703.104 695.424,704.006 696.515,704.006L703.712,704.006C704.803,704.006 705.66,703.104 705.66,702.016C705.66,700.902 704.803,700.026 703.712,700.026Z" fill="#262626"/>
</svg>
