<svg width="162" height="162" viewBox="0 0 162 162" fill="none" xmlns="http://www.w3.org/2000/svg" xmlns:xlink="http://www.w3.org/1999/xlink">
<path d="M0.002,161C0.002,150.494 2.071,140.091 6.091,130.385C10.112,120.679 16.004,111.86 23.433,104.431C30.862,97.002 39.681,91.11 49.387,87.089C59.093,83.069 69.496,81 80.002,81L80.002,161L0.002,161Z" fill="#1A1A1A"/>
<path d="M160.002,1C160.002,11.505 157.932,21.908 153.912,31.614C149.892,41.32 143.999,50.139 136.57,57.568C129.141,64.997 120.322,70.89 110.616,74.91C100.91,78.93 90.507,81 80.002,81L80.002,1L160.002,1Z" fill="#1A1A1A"/>
</svg>
