<svg width="98" height="96" viewBox="0 0 98 96" fill="none" xmlns="http://www.w3.org/2000/svg" xmlns:xlink="http://www.w3.org/1999/xlink">
<path d="M0.001,96C0.001,89.696 1.243,83.454 3.655,77.631C6.067,71.807 9.603,66.516 14.06,62.058C18.517,57.601 23.809,54.066 29.632,51.653C35.456,49.241 41.697,48 48.001,48L48.001,96L0.001,96Z" fill="#1A1A1A"/>
<path d="M96.001,0C96.001,6.303 94.759,12.545 92.347,18.368C89.935,24.192 86.399,29.483 81.942,33.941C77.485,38.398 72.193,41.934 66.37,44.346C60.546,46.758 54.304,48 48.001,48L48.001,0L96.001,0Z" fill="#1A1A1A"/>
</svg>
