<svg width="36" height="34" viewBox="0 0 36 34" fill="none" xmlns="http://www.w3.org/2000/svg" xmlns:xlink="http://www.w3.org/1999/xlink">
<path d="M16.317,0.62C17.104,-0.606 18.896,-0.606 19.683,0.62L24.397,7.96C24.668,8.381 25.087,8.686 25.572,8.813L34.009,11.029C35.418,11.399 35.972,13.102 35.049,14.23L29.526,20.981C29.208,21.369 29.048,21.862 29.077,22.363L29.577,31.072C29.661,32.526 28.212,33.579 26.854,33.05L18.726,29.883C18.259,29.701 17.741,29.701 17.274,29.883L9.146,33.05C7.788,33.579 6.339,32.526 6.423,31.072L6.923,22.363C6.952,21.862 6.792,21.369 6.474,20.981L0.951,14.23C0.028,13.102 0.582,11.399 1.991,11.029L10.428,8.813C10.913,8.686 11.332,8.381 11.603,7.96L16.317,0.62Z" fill="#FFCE22"/>
</svg>
