<svg width="40" height="40" viewBox="0 0 40 40" fill="none" xmlns="http://www.w3.org/2000/svg" xmlns:xlink="http://www.w3.org/1999/xlink">
<path d="M29.096,4.691C24.953,6.348 20.517,7.426 15.885,7.826C14.55,7.941 13.199,8 11.833,8L10.333,8C4.535,8 -0.167,12.701 -0.167,18.5C-0.167,23.699 3.612,28.016 8.573,28.853C9.242,31.591 10.17,34.228 11.329,36.735C12.257,38.742 14.677,39.375 16.494,38.326L17.807,37.568C19.567,36.552 20.138,34.383 19.351,32.632C18.881,31.587 18.462,30.515 18.096,29.418C21.931,29.934 25.617,30.918 29.096,32.309C30.547,27.97 31.333,23.327 31.333,18.5C31.333,13.673 30.547,9.03 29.096,4.691Z" fill="#262626"/>
<path d="M31.855,3.481C33.462,8.193 34.333,13.245 34.333,18.5C34.333,23.755 33.462,28.807 31.855,33.519L31.855,33.519C31.744,33.842 31.631,34.164 31.514,34.484C31.229,35.262 31.629,36.124 32.407,36.409C33.185,36.693 34.046,36.294 34.331,35.516C34.611,34.751 34.873,33.977 35.115,33.195C36.163,29.821 36.859,26.294 37.161,22.656C38.195,21.579 38.833,20.113 38.833,18.5C38.833,16.887 38.195,15.421 37.161,14.345C36.859,10.706 36.163,7.179 35.115,3.805C34.873,3.023 34.611,2.249 34.331,1.484C34.046,0.706 33.185,0.307 32.407,0.591C31.629,0.876 31.229,1.738 31.514,2.516C31.631,2.836 31.744,3.158 31.855,3.481L31.855,3.481Z" fill="#262626"/>
</svg>
