<svg width="40" height="42" viewBox="0 0 40 42" fill="none" xmlns="http://www.w3.org/2000/svg" xmlns:xlink="http://www.w3.org/1999/xlink">
<path d="M10.25,9L10.25,10.5L6.276,10.5C4.357,10.5 2.747,11.949 2.546,13.857L0.02,37.857C-0.213,40.072 1.523,42 3.749,42L34.751,42C36.977,42 38.713,40.072 38.48,37.857L35.954,13.857C35.753,11.949 34.144,10.5 32.225,10.5L28.25,10.5L28.25,9C28.25,4.029 24.221,0 19.25,0C14.279,0 10.25,4.029 10.25,9ZM19.25,3C15.936,3 13.25,5.686 13.25,9L13.25,10.5L25.25,10.5L25.25,9C25.25,5.686 22.564,3 19.25,3ZM13.25,19.5C13.25,22.814 15.936,25.5 19.25,25.5C22.564,25.5 25.25,22.814 25.25,19.5L25.25,18C25.25,17.172 25.922,16.5 26.75,16.5C27.578,16.5 28.25,17.172 28.25,18L28.25,19.5C28.25,24.471 24.221,28.5 19.25,28.5C14.279,28.5 10.25,24.471 10.25,19.5L10.25,18C10.25,17.172 10.922,16.5 11.75,16.5C12.578,16.5 13.25,17.172 13.25,18L13.25,19.5Z" clip-rule="evenodd" fill-rule="evenodd" fill="#262626"/>
</svg>
