<svg width="42" height="40" viewBox="0 0 42 40" fill="none" xmlns="http://www.w3.org/2000/svg" xmlns:xlink="http://www.w3.org/1999/xlink">
<path d="M0.5,-0.5C-0.328,-0.5 -1,0.172 -1,1C-1,1.828 -0.328,2.5 0.5,2.5L3.271,2.5C3.611,2.5 3.909,2.728 3.996,3.057L9.112,22.24C5.884,23.077 3.5,26.01 3.5,29.5C3.5,30.328 4.172,31 5,31L36.5,31C37.328,31 38,30.328 38,29.5C38,28.672 37.328,28 36.5,28L6.756,28C7.374,26.252 9.041,25 11,25L33.437,25C34.01,25 34.534,24.673 34.785,24.157C37.055,19.498 39.037,14.672 40.705,9.703C40.838,9.307 40.8,8.874 40.601,8.508C40.402,8.142 40.059,7.875 39.655,7.772C30.011,5.309 19.907,4 9.5,4C8.784,4 8.07,4.006 7.357,4.019L6.895,2.284C6.457,0.642 4.97,-0.5 3.271,-0.5L0.5,-0.5Z" fill="#262626"/>
<path d="M3.5,35.5C3.5,33.843 4.843,32.5 6.5,32.5C8.157,32.5 9.5,33.843 9.5,35.5C9.5,37.157 8.157,38.5 6.5,38.5C4.843,38.5 3.5,37.157 3.5,35.5Z" fill="#262626"/>
<path d="M29,35.5C29,33.843 30.343,32.5 32,32.5C33.657,32.5 35,33.843 35,35.5C35,37.157 33.657,38.5 32,38.5C30.343,38.5 29,37.157 29,35.5Z" fill="#262626"/>
</svg>
