<svg width="40" height="40" viewBox="0 0 40 40" fill="none" xmlns="http://www.w3.org/2000/svg" xmlns:xlink="http://www.w3.org/1999/xlink">
<path d="M19.333,0.5C20.162,0.5 20.833,1.172 20.833,2L20.833,6.5C20.833,7.328 20.162,8 19.333,8C18.505,8 17.833,7.328 17.833,6.5L17.833,2C17.833,1.172 18.505,0.5 19.333,0.5Z" fill="#262626"/>
<path d="M10.333,20C10.333,15.029 14.363,11 19.333,11C24.304,11 28.333,15.029 28.333,20C28.333,24.971 24.304,29 19.333,29C14.363,29 10.333,24.971 10.333,20Z" fill="#262626"/>
<path d="M33.122,8.333C33.708,7.747 33.708,6.797 33.122,6.211C32.536,5.626 31.587,5.626 31.001,6.211L27.819,9.393C27.233,9.979 27.233,10.929 27.819,11.515C28.405,12.1 29.354,12.1 29.94,11.515L33.122,8.333Z" fill="#262626"/>
<path d="M38.833,20C38.833,20.828 38.162,21.5 37.333,21.5L32.833,21.5C32.005,21.5 31.333,20.828 31.333,20C31.333,19.172 32.005,18.5 32.833,18.5L37.333,18.5C38.162,18.5 38.833,19.172 38.833,20Z" fill="#262626"/>
<path d="M31.001,33.789C31.586,34.374 32.536,34.374 33.122,33.789C33.708,33.203 33.708,32.253 33.122,31.667L29.94,28.485C29.354,27.899 28.404,27.899 27.819,28.485C27.233,29.071 27.233,30.021 27.819,30.607L31.001,33.789Z" fill="#262626"/>
<path d="M19.333,32C20.162,32 20.833,32.672 20.833,33.5L20.833,38C20.833,38.828 20.162,39.5 19.333,39.5C18.505,39.5 17.833,38.828 17.833,38L17.833,33.5C17.833,32.672 18.505,32 19.333,32Z" fill="#262626"/>
<path d="M10.848,30.607C11.434,30.021 11.434,29.071 10.848,28.485C10.263,27.899 9.313,27.899 8.727,28.485L5.545,31.667C4.959,32.253 4.959,33.203 5.545,33.789C6.131,34.374 7.081,34.374 7.667,33.789L10.848,30.607Z" fill="#262626"/>
<path d="M7.333,20C7.333,20.828 6.662,21.5 5.833,21.5L1.333,21.5C0.505,21.5 -0.167,20.828 -0.167,20C-0.167,19.172 0.505,18.5 1.333,18.5L5.833,18.5C6.662,18.5 7.333,19.172 7.333,20Z" fill="#262626"/>
<path d="M8.727,11.515C9.313,12.1 10.262,12.1 10.848,11.515C11.434,10.929 11.434,9.979 10.848,9.393L7.666,6.211C7.081,5.626 6.131,5.626 5.545,6.211C4.959,6.797 4.959,7.747 5.545,8.333L8.727,11.515Z" fill="#262626"/>
</svg>
