<svg width="34" height="34" viewBox="0 0 34 34" fill="none" xmlns="http://www.w3.org/2000/svg" xmlns:xlink="http://www.w3.org/1999/xlink">
<path d="M9.5,0.5L32,0.5C32.398,0.5 32.779,0.658 33.061,0.939C33.342,1.221 33.5,1.602 33.5,2L33.5,24.5C33.5,25.328 32.828,26 32,26C31.172,26 30.5,25.328 30.5,24.5L30.5,5.621L3.061,33.061C2.475,33.646 1.525,33.646 0.939,33.061C0.354,32.475 0.354,31.525 0.939,30.939L28.379,3.5L9.5,3.5C8.672,3.5 8,2.828 8,2C8,1.172 8.672,0.5 9.5,0.5Z" clip-rule="evenodd" fill-rule="evenodd" fill="#FFFFFF"/>
</svg>
