<svg width="40" height="40" viewBox="0 0 40 40" fill="none" xmlns="http://www.w3.org/2000/svg" xmlns:xlink="http://www.w3.org/1999/xlink">
<path d="M33.565,12.896L27.442,17.998C27.742,19.315 27.742,20.685 27.442,22.002L33.565,27.104C35.701,22.624 35.701,17.376 33.565,12.896ZM25.77,34.898L20.668,28.776C19.352,29.075 17.982,29.075 16.665,28.776L11.563,34.898C16.043,37.034 21.29,37.034 25.77,34.898ZM3.769,27.104L9.891,22.002C9.592,20.685 9.592,19.315 9.891,17.998L3.769,12.896C1.633,17.376 1.633,22.624 3.769,27.104ZM11.563,5.102L16.665,11.224C17.982,10.925 19.352,10.925 20.668,11.224L25.77,5.102C21.29,2.966 16.043,2.966 11.563,5.102ZM28.878,3.382C30.152,4.167 31.354,5.11 32.455,6.211C33.557,7.313 34.5,8.515 35.284,9.789C39.128,16.033 39.128,23.967 35.284,30.211C34.5,31.485 33.557,32.687 32.455,33.789C31.354,34.89 30.152,35.833 28.878,36.618C22.634,40.461 14.699,40.461 8.456,36.618C7.182,35.833 5.98,34.89 4.878,33.789C3.777,32.687 2.833,31.485 2.049,30.211C-1.794,23.967 -1.794,16.033 2.049,9.789C2.833,8.515 3.777,7.313 4.878,6.211C5.98,5.11 7.182,4.167 8.456,3.382C14.699,-0.461 22.634,-0.461 28.878,3.382ZM22.909,15.757C22.258,15.106 21.498,14.638 20.69,14.349C19.385,13.884 17.949,13.884 16.644,14.349C15.835,14.638 15.075,15.106 14.424,15.757C13.773,16.408 13.305,17.168 13.016,17.977C12.55,19.282 12.55,20.718 13.016,22.023C13.305,22.832 13.773,23.592 14.424,24.243C15.075,24.894 15.835,25.362 16.644,25.651C17.949,26.116 19.385,26.116 20.69,25.651C21.498,25.362 22.258,24.894 22.909,24.243C23.561,23.592 24.029,22.832 24.317,22.023C24.783,20.718 24.783,19.282 24.317,17.977C24.029,17.168 23.561,16.408 22.909,15.757Z" clip-rule="evenodd" fill-rule="evenodd" fill="#262626"/>
</svg>
