<svg width="40" height="40" viewBox="0 0 40 40" fill="none" xmlns="http://www.w3.org/2000/svg" xmlns:xlink="http://www.w3.org/1999/xlink">
<path d="M40,20C40,8.954 31.046,0 20,0C8.954,0 0,8.954 0,20C0,29.982 7.314,38.257 16.875,39.757L16.875,25.781L11.797,25.781L11.797,20L16.875,20L16.875,15.594C16.875,10.581 19.861,7.813 24.429,7.813C26.617,7.813 28.906,8.203 28.906,8.203L28.906,13.125L26.384,13.125C23.9,13.125 23.125,14.667 23.125,16.25L23.125,20L28.672,20L27.785,25.781L23.125,25.781L23.125,39.757C32.686,38.257 40,29.982 40,20Z" fill="#FFFFFF"/>
</svg>
