<svg width="42" height="44" viewBox="0 0 42 44" fill="none" xmlns="http://www.w3.org/2000/svg" xmlns:xlink="http://www.w3.org/1999/xlink">
<path d="M14.667,7C15.336,7 15.925,7.444 16.109,8.088L17.735,13.78C18.447,16.272 20.395,18.219 22.887,18.931L28.579,20.558C29.223,20.742 29.667,21.33 29.667,22C29.667,22.67 29.223,23.258 28.579,23.442L22.886,25.069C20.395,25.781 18.447,27.728 17.735,30.22L16.109,35.912C15.925,36.556 15.336,37 14.667,37C13.997,37 13.408,36.556 13.224,35.912L11.598,30.22C10.886,27.728 8.939,25.781 6.447,25.069L0.755,23.442C0.111,23.258 -0.333,22.67 -0.333,22C-0.333,21.33 0.111,20.742 0.755,20.558L6.447,18.931C8.939,18.219 10.886,16.272 11.598,13.78L13.224,8.088C13.408,7.444 13.997,7 14.667,7Z" clip-rule="evenodd" fill-rule="evenodd" fill="#262626"/>
<path d="M32.667,1C33.355,1 33.955,1.468 34.122,2.136L34.64,4.207C35.11,6.088 36.579,7.557 38.46,8.027L40.531,8.545C41.198,8.712 41.667,9.312 41.667,10C41.667,10.688 41.198,11.288 40.531,11.455L38.46,11.973C36.579,12.443 35.11,13.912 34.64,15.793L34.122,17.864C33.955,18.532 33.355,19 32.667,19C31.978,19 31.379,18.532 31.212,17.864L30.694,15.793C30.224,13.912 28.755,12.443 26.874,11.973L24.803,11.455C24.135,11.288 23.667,10.688 23.667,10C23.667,9.312 24.135,8.712 24.803,8.545L26.874,8.027C28.755,7.557 30.224,6.088 30.694,4.207L31.212,2.136C31.379,1.468 31.978,1 32.667,1Z" clip-rule="evenodd" fill-rule="evenodd" fill="#262626"/>
<path d="M29.667,28C30.312,28 30.886,28.413 31.09,29.026L31.878,31.391C32.177,32.287 32.88,32.99 33.776,33.288L36.141,34.077C36.754,34.281 37.167,34.854 37.167,35.5C37.167,36.146 36.754,36.719 36.141,36.923L33.776,37.712C32.88,38.01 32.177,38.713 31.878,39.609L31.09,41.974C30.886,42.587 30.312,43 29.667,43C29.021,43 28.448,42.587 28.244,41.974L27.455,39.609C27.157,38.713 26.454,38.01 25.558,37.712L23.192,36.923C22.58,36.719 22.167,36.146 22.167,35.5C22.167,34.854 22.58,34.281 23.192,34.077L25.558,33.288C26.454,32.99 27.157,32.287 27.455,31.391L28.244,29.026C28.448,28.413 29.021,28 29.667,28Z" clip-rule="evenodd" fill-rule="evenodd" fill="#262626"/>
</svg>
