<svg width="40" height="40" viewBox="0 0 40 40" fill="none" xmlns="http://www.w3.org/2000/svg" xmlns:xlink="http://www.w3.org/1999/xlink">
<path d="M37.039,0L2.953,0C1.32,0 0,1.289 0,2.883L0,37.109C0,38.703 1.32,40 2.953,40L37.039,40C38.672,40 40,38.703 40,37.117L40,2.883C40,1.289 38.672,0 37.039,0ZM11.867,34.086L5.93,34.086L5.93,14.992L11.867,14.992L11.867,34.086ZM8.898,12.391C6.992,12.391 5.453,10.852 5.453,8.953C5.453,7.055 6.992,5.516 8.898,5.516C10.797,5.516 12.336,7.055 12.336,8.953C12.336,10.844 10.797,12.391 8.898,12.391ZM34.086,34.086L28.156,34.086L28.156,24.805C28.156,22.594 28.117,19.742 25.07,19.742C21.984,19.742 21.516,22.156 21.516,24.648L21.516,34.086L15.594,34.086L15.594,14.992L21.281,14.992L21.281,17.602L21.359,17.602C22.148,16.102 24.086,14.516 26.969,14.516C32.977,14.516 34.086,18.469 34.086,23.609L34.086,34.086L34.086,34.086Z" fill="#FFFFFF"/>
</svg>
