<svg width="34" height="46" viewBox="0 0 34 46" fill="none" xmlns="http://www.w3.org/2000/svg" xmlns:xlink="http://www.w3.org/1999/xlink">
<path d="M16,-0.5C6.887,-0.5 -0.5,6.887 -0.5,16C-0.5,22.102 2.813,27.428 7.73,30.281C9.101,31.076 9.96,32.297 9.999,33.525C10.02,34.203 10.493,34.782 11.153,34.937C11.856,35.104 12.572,35.234 13.299,35.328C13.946,35.411 14.5,34.892 14.5,34.24L14.5,24.918C13.862,24.847 13.236,24.732 12.626,24.575C11.824,24.369 11.341,23.551 11.548,22.749C11.754,21.946 12.572,21.463 13.374,21.67C14.212,21.885 15.092,22 16,22C16.909,22 17.789,21.885 18.626,21.67C19.429,21.463 20.247,21.946 20.453,22.749C20.66,23.551 20.177,24.369 19.374,24.575C18.765,24.732 18.139,24.847 17.5,24.918L17.5,34.24C17.5,34.892 18.054,35.411 18.702,35.328C19.429,35.234 20.145,35.104 20.847,34.937C21.507,34.782 21.98,34.203 22.001,33.525C22.04,32.297 22.899,31.076 24.27,30.281C29.187,27.428 32.5,22.102 32.5,16C32.5,6.887 25.113,-0.5 16,-0.5Z" fill="#262626"/>
<path d="M10.026,37.799C10.181,36.985 10.966,36.451 11.78,36.605C13.145,36.864 14.556,37 16,37C17.444,37 18.855,36.864 20.22,36.605C21.034,36.451 21.819,36.985 21.974,37.799C22.128,38.613 21.593,39.398 20.78,39.553C19.23,39.846 17.632,40 16,40C14.368,40 12.77,39.846 11.22,39.553C10.407,39.398 9.872,38.613 10.026,37.799Z" clip-rule="evenodd" fill-rule="evenodd" fill="#262626"/>
<path d="M11.508,42.688C11.594,41.864 12.332,41.266 13.156,41.352C14.09,41.45 15.039,41.5 16,41.5C16.961,41.5 17.91,41.45 18.844,41.352C19.668,41.266 20.406,41.864 20.492,42.688C20.578,43.512 19.98,44.25 19.156,44.336C18.118,44.444 17.065,44.5 16,44.5C14.935,44.5 13.882,44.444 12.844,44.336C12.02,44.25 11.422,43.512 11.508,42.688Z" clip-rule="evenodd" fill-rule="evenodd" fill="#262626"/>
</svg>
