<svg width="40" height="34" viewBox="0 0 40 34" fill="none" xmlns="http://www.w3.org/2000/svg" xmlns:xlink="http://www.w3.org/1999/xlink">
<path d="M12.584,32.25C27.674,32.25 35.93,19.744 35.93,8.903C35.93,8.551 35.923,8.192 35.907,7.84C37.513,6.679 38.899,5.24 40,3.592C38.504,4.257 36.916,4.692 35.29,4.881C37.002,3.855 38.284,2.242 38.898,0.343C37.288,1.297 35.526,1.971 33.689,2.334C32.451,1.019 30.815,0.148 29.033,-0.143C27.251,-0.435 25.422,-0.132 23.83,0.72C22.237,1.572 20.97,2.924 20.223,4.569C19.477,6.213 19.292,8.057 19.699,9.817C16.437,9.653 13.247,8.806 10.333,7.33C7.42,5.854 4.849,3.782 2.788,1.249C1.741,3.055 1.42,5.192 1.892,7.227C2.363,9.261 3.592,11.039 5.327,12.2C4.024,12.158 2.75,11.808 1.609,11.176L1.609,11.278C1.608,13.173 2.264,15.011 3.464,16.478C4.664,17.945 6.336,18.951 8.194,19.325C6.987,19.655 5.72,19.703 4.491,19.465C5.016,21.096 6.036,22.521 7.41,23.544C8.783,24.566 10.442,25.134 12.154,25.169C9.247,27.452 5.657,28.69 1.961,28.684C1.305,28.683 0.651,28.643 0,28.564C3.755,30.973 8.123,32.252 12.584,32.25Z" fill="#FFFFFF"/>
</svg>
