<svg width="40" height="40" viewBox="0 0 40 40" fill="none" xmlns="http://www.w3.org/2000/svg" xmlns:xlink="http://www.w3.org/1999/xlink">
<path d="M2.7,18C1.596,18 0.7,18.895 0.7,20C0.7,21.105 1.596,22 2.7,22L2.7,18ZM37.3,22C38.404,22 39.3,21.105 39.3,20C39.3,18.895 38.404,18 37.3,18L37.3,22ZM22,2.7C22,1.596 21.105,0.7 20,0.7C18.895,0.7 18,1.596 18,2.7L22,2.7ZM18,37.3C18,38.404 18.895,39.3 20,39.3C21.105,39.3 22,38.404 22,37.3L18,37.3ZM2.7,22L20,22L20,18L2.7,18L2.7,22ZM20,22L37.3,22L37.3,18L20,18L20,22ZM22,20L22,2.7L18,2.7L18,20L22,20ZM18,20L18,37.3L22,37.3L22,20L18,20Z" transform="rotate(-90 20 20)" fill="#262626"/>
</svg>
